Coordinates
version=1
nRows=15
nColumns=33
inDegrees=yes

Units are S.I. units (second, meters, Newtons, ...)
Angles are in degrees.

endheader
time	ground_thorax_rot_x	ground_thorax_rot_y	ground_thorax_rot_z	ground_thorax_tx	ground_thorax_ty	ground_thorax_tz	clav_prot_r	clav_elev_r	scapula_abduction_r	scapula_elevation_r	scapula_upward_rot_r	scapula_winging_r	shoulder_elv_r	plane_of_elev_r	axial_rot_r	elbow_flexion_r	pro_sup_r	wrist_flex_r	wrist_dev_r	clav_prot_l	clav_elev_l	scapula_abduction_l	scapula_elevation_l	scapula_upward_rot_l	scapula_winging_l	shoulder_elv_l	plane_of_elev_l	axial_rot_l	elbow_flexion_l	pro_sup_l	wrist_flex_l	wrist_dev_l	
1.7200	1.762674	5.763262	-5.662922	-0.140395	1.003557	0.009204	-20.107012	-9.140910	-23.754255	-6.825649	13.332736	1.363735	65.239935	-49.547151	59.826294	87.369968	13.842962	22.345932	-1.356895	-1.875919	-1.129906	0.500018	-5.842073	-2.390879	0.150692	47.091260	-49.775278	-22.188925	87.354730	6.379236	-1.699662	-18.549620	
1.7300	1.924180	5.677827	-5.678759	-0.140557	1.003615	0.009109	-20.024279	-9.120844	-23.754023	-6.732192	13.115589	1.406986	65.534626	-49.225334	59.702014	87.445847	13.907792	22.546789	-0.550798	-1.753060	-1.332746	0.085332	-5.522775	-2.062881	0.282043	46.186432	-50.249210	-21.349574	87.392903	6.868726	-1.316339	-18.323298	
1.7400	2.006096	5.642974	-5.677634	-0.140684	1.003584	0.009075	-19.977916	-9.118750	-23.752878	-6.687420	12.992613	1.435611	65.673442	-49.052041	59.636945	87.497412	13.928479	22.640806	-0.118016	-1.687502	-1.446863	-0.138448	-5.347114	-1.885699	0.352442	45.698994	-50.489771	-20.901764	87.416700	7.130411	-1.112687	-18.200816	
1.7500	2.091824	5.610824	-5.671136	-0.140815	1.003606	0.009035	-19.926748	-9.120713	-23.751352	-6.641744	12.855585	1.469834	65.814621	-48.862051	59.564027	87.559686	13.936767	22.728939	0.356673	-1.615054	-1.571844	-0.385880	-5.152385	-1.688536	0.430266	45.167885	-50.742993	-20.412251	87.445307	7.416028	-0.891515	-18.065017	
1.7600	2.144810	5.602925	-5.654378	-0.140934	1.003621	0.009015	-19.888378	-9.133773	-23.749682	-6.617033	12.749615	1.501764	65.889966	-48.722997	59.507594	87.618733	13.907984	22.757005	0.704257	-1.561518	-1.665045	-0.570364	-5.006238	-1.539584	0.488607	44.785499	-50.903304	-20.058511	87.471996	7.621339	-0.734912	-17.961743	
1.7700	2.164560	5.620403	-5.631172	-0.141040	1.003623	0.009014	-19.863379	-9.160189	-23.750157	-6.614405	12.671755	1.533127	65.897524	-48.630222	59.458956	87.676430	13.818279	22.700873	0.942171	-1.522735	-1.724219	-0.702198	-4.907753	-1.431345	0.531806	44.540826	-50.973216	-19.826698	87.498937	7.753742	-0.638124	-17.882229	
1.7800	2.154103	5.659994	-5.605234	-0.141137	1.003605	0.009027	-19.850958	-9.199818	-23.754413	-6.632130	12.617230	1.564906	65.845046	-48.573533	59.408994	87.733597	13.654328	22.550085	1.097877	-1.493585	-1.751620	-0.796215	-4.850516	-1.352670	0.565632	44.409216	-50.964846	-19.690875	87.528196	7.827341	-0.589610	-17.815509	
1.7900	2.105900	5.726759	-5.594619	-0.141232	1.003554	0.009050	-19.855458	-9.262830	-23.775459	-6.675551	12.573393	1.604639	65.713306	-48.543730	59.325949	87.799345	13.311934	22.196566	1.230518	-1.458058	-1.734670	-0.888643	-4.836916	-1.280595	0.606096	44.356409	-50.880246	-19.610920	87.567960	7.865590	-0.576436	-17.729291	
1.8000	2.043588	5.804521	-5.598041	-0.141332	1.003490	0.009069	-19.867022	-9.341480	-23.810221	-6.730933	12.521179	1.653434	65.548684	-48.502308	59.201668	87.875967	12.829072	21.698253	1.417790	-1.406196	-1.699047	-1.016897	-4.830871	-1.184806	0.663838	44.287274	-50.777475	-19.500299	87.620057	7.916882	-0.553346	-17.602180	
1.8100	1.972221	5.889187	-5.611658	-0.141433	1.003413	0.009087	-19.884449	-9.432707	-23.856249	-6.795972	12.462423	1.709524	65.358831	-48.445911	59.041563	87.959952	12.229923	21.085069	1.650330	-1.341198	-1.649211	-1.173767	-4.830505	-1.070735	0.735006	44.204616	-50.659023	-19.364835	87.683241	7.975530	-0.516504	-17.435665	
1.8200	1.909407	5.967474	-5.617756	-0.141527	1.003334	0.009105	-19.901161	-9.521677	-23.900124	-6.859686	12.406052	1.764043	65.178637	-48.366223	58.874760	88.037027	11.633305	20.494279	1.882599	-1.279476	-1.607014	-1.325239	-4.824395	-0.959665	0.802762	44.124885	-50.534786	-19.228719	87.750443	8.018934	-0.457523	-17.246318	
1.8300	1.856963	6.037650	-5.617782	-0.141615	1.003254	0.009121	-19.916874	-9.607734	-23.943103	-6.920621	12.349492	1.817296	65.007911	-48.257405	58.699219	88.103796	11.036694	19.931641	2.115429	-1.222115	-1.575612	-1.469268	-4.810377	-0.853375	0.865592	44.048264	-50.402138	-19.091444	87.822922	8.041100	-0.367477	-17.024504	
1.8400	1.828616	6.091077	-5.615437	-0.141696	1.003177	0.009132	-19.929670	-9.681658	-23.988473	-6.967809	12.285119	1.866568	64.857550	-48.084295	58.510929	88.147065	10.448689	19.444632	2.349329	-1.178205	-1.572923	-1.588429	-4.776769	-0.763550	0.913481	43.975934	-50.256063	-18.950834	87.904699	8.010631	-0.199708	-16.721793	
1.8500	1.818957	6.130630	-5.613214	-0.141772	1.003102	0.009139	-19.940675	-9.748384	-24.038940	-7.004836	12.209906	1.914943	64.717882	-47.852379	58.302426	88.165688	9.847588	19.014840	2.587660	-1.144886	-1.594964	-1.688056	-4.726205	-0.687691	0.949054	43.909306	-50.092195	-18.804705	87.996021	7.929141	0.042719	-16.338670	
1.8600	1.823518	6.159054	-5.612117	-0.141843	1.003027	0.009139	-19.950651	-9.812001	-24.095913	-7.034954	12.122239	1.964666	64.581500	-47.567129	58.068255	88.159069	9.219526	18.628778	2.832137	-1.119964	-1.638617	-1.771996	-4.660977	-0.624398	0.974142	43.849456	-49.907354	-18.652146	88.095811	7.798528	0.355388	-15.878102	
